{
	"asset":{
		"copyright":"WWC",
		"generator":"Khronos glTF Blender I/O v4.5.48",
		"version":"2.0"
	},
	"scene":0,
	"scenes":[
		{
			"name":"Scene",
			"nodes":[
				0,
				1,
				2
			]
		}
	],
	"nodes":[
		{
			"name":"Scene Collection"
		},
		{
			"name":"Collection"
		},
		{
			"mesh":0,
			"name":"faerun"
		}
	],
	"materials":[
		{
			"doubleSided":true,
			"name":"Material",
			"pbrMetallicRoughness":{
				"baseColorTexture":{
					"index":0
				},
				"metallicFactor":0,
				"roughnessFactor":0.5
			}
		}
	],
	"meshes":[
		{
			"name":"faerun",
			"primitives":[
				{
					"attributes":{
						"POSITION":0,
						"NORMAL":1,
						"TEXCOORD_0":2,
						"TANGENT":3
					},
					"indices":4,
					"material":0
				}
			]
		}
	],
	"textures":[
		{
			"sampler":0,
			"source":0
		}
	],
	"images":[
		{
			"mimeType":"image/jpeg",
			"name":"Sword-Coast-Map_LowRes-1537199078",
			"uri":"Sword-Coast-Map_LowRes-1537199078.jpg/Sword-Coast-Map_LowRes-1537199078.jpg"
		}
	],
	"accessors":[
		{
			"bufferView":0,
			"componentType":5126,
			"count":135486,
			"max":[
				100.01528930664062,
				6.825275897979736,
				100.01124572753906
			],
			"min":[
				-100.00001525878906,
				2.345576047897339,
				-100.01009368896484
			],
			"type":"VEC3"
		},
		{
			"bufferView":1,
			"componentType":5126,
			"count":135486,
			"type":"VEC3"
		},
		{
			"bufferView":2,
			"componentType":5126,
			"count":135486,
			"type":"VEC2"
		},
		{
			"bufferView":3,
			"componentType":5126,
			"count":135486,
			"type":"VEC4"
		},
		{
			"bufferView":4,
			"componentType":5125,
			"count":135522,
			"type":"SCALAR"
		}
	],
	"bufferViews":[
		{
			"buffer":0,
			"byteLength":1625832,
			"byteOffset":0,
			"target":34962
		},
		{
			"buffer":0,
			"byteLength":1625832,
			"byteOffset":1625832,
			"target":34962
		},
		{
			"buffer":0,
			"byteLength":1083888,
			"byteOffset":3251664,
			"target":34962
		},
		{
			"buffer":0,
			"byteLength":2167776,
			"byteOffset":4335552,
			"target":34962
		},
		{
			"buffer":0,
			"byteLength":542088,
			"byteOffset":6503328,
			"target":34963
		}
	],
	"samplers":[
		{
			"magFilter":9729,
			"minFilter":9987,
			"wrapS":33071,
			"wrapT":33071
		}
	],
	"buffers":[
		{
			"byteLength":7045416,
			"uri":"SwordCoast.bin"
		}
	]
}
